<svg version="1.2" xmlns="http://www.w3.org/2000/svg" viewBox="0 0 500 500" width="500" height="500">
	<title>Black Google Scholar Icon Vector-svg</title>
	<style>
		.s0 { fill: #ffffff } 
	</style>
	<g id="Layer">
		<path id="Layer" class="s0" d="m250 6c-138 0-250 111.9-250 250 0 110.5 71.6 204.2 171 237.2 12.5 2.3 16.5-5.4 16.5-12v-46.5c-69.5 15.1-84-29.5-84-29.5-11.4-28.9-27.8-36.6-27.8-36.6-22.7-15.5 1.7-15.2 1.7-15.2 25.1 1.7 38.4 25.8 38.4 25.8 22.2 38.2 58.4 27.1 72.7 20.7 2.2-16.1 8.7-27.1 15.9-33.4-55.5-6.3-113.9-27.8-113.9-123.5 0-27.4 9.8-49.6 25.7-67.1-2.6-6.4-11.1-31.8 2.5-66.2 0 0 21-6.7 68.7 25.6 20-5.5 41.4-8.3 62.6-8.4 21.3 0.1 42.6 2.9 62.6 8.4 47.8-32.3 68.7-25.6 68.7-25.6 13.6 34.4 5.1 59.9 2.5 66.2 16 17.5 25.7 39.8 25.7 67.1 0 96-58.5 117.1-114.1 123.3 8.9 7.8 17.1 23 17.1 46.3v68.6c0 6.7 4 14.5 16.7 12 99.3-33.1 170.8-126.8 170.8-237.2 0-138.1-111.9-250-250-250z"/>
	</g>
</svg>