<svg version="1.2" xmlns="http://www.w3.org/2000/svg" viewBox="0 0 500 500" width="500" height="500">
	<title>iconmonstr-linkedin-3-svg</title>
	<style>
		.s0 { fill: #ffffff } 
	</style>
	<path id="Layer" fill-rule="evenodd" class="s0" d="m0 104c0-57.4 46.6-104 104-104h292c57.4 0 104 46.6 104 104v292c0 57.4-46.6 104-104 104h-292c-57.4 0-104-46.6-104-104zm104.2 291.8h62.5v-229.1h-62.5zm67.7-292.4c0-20.3-16.3-36.7-36.5-36.7-20.1 0-36.4 16.4-36.4 36.7 0 20.4 16.3 36.8 36.4 36.8 20.2 0 36.5-16.4 36.5-36.8zm244.8 151.6c0-109.5-116.8-105.5-145.9-51.6v-36.8h-62.5v229.2h62.5v-116.8c0-64.8 83.4-70.2 83.4 0v116.8h62.5z"/>
</svg>