<svg version="1.2" xmlns="http://www.w3.org/2000/svg" viewBox="0 0 500 500" width="500" height="500"><style>.a{fill:#fff}</style><path fill-rule="evenodd" class="a" d="m293.4 479.7c-160.4 30.6-301.5-109.6-272.6-271-74.3-120.9 64.9-262.3 186.2-188.1 159.1-29.9 300.2 108.6 271.9 270.4 74.8 120.8-64 262.4-185.5 188.7zm90.5-170.8c0-109.8-187.3-80.9-187.3-130.8 0-23.8 22.2-34.8 48.6-34.8 58.4 0 61.9 45.4 95.8 45.4 23.3 0 36.7-15.8 34.6-36-4.3-30.9-48.2-64.1-123.3-68.5-78.7-4.6-128.7 37.6-128.7 98.8 0 113 188.4 76.1 188.4 136.3 0 16.6-14.9 40.5-58.5 40.5-62.1 0-61.7-58.3-100.8-58.3-15.5 0-27.1 14.4-27.2 30.1-0.4 51.9 66.2 82.1 132.5 82.1 75.4 0 125.8-41.5 125.9-104.8z"/></svg>