<svg version="1.2" xmlns="http://www.w3.org/2000/svg" viewBox="0 0 500 500" width="500" height="500"><style>.a{fill:#fff}</style><path fill-rule="evenodd" class="a" d="m250 500c-138.3 0-250-111.8-250-250 0-138.3 111.8-250 250-250 138.3 0 250 111.8 250 250 0 138.3-111.8 250-250 250zm-145.8-168.6c0 11.6 9.4 21 21 21h249.6c11.6 0 21-9.4 21-21v-164.6c0-11.6-9.4-21-21-21h-249.6c-11.6 0-21 9.4-21 21zm259.1-131.7v140.6h-227.1l0.3-140.6 113.5 78.8zm-5.5-41.7c-31.8 22.1-107.8 75.7-107.8 75.7l-108.4-75.7z"/></svg>