<svg version="1.2" xmlns="http://www.w3.org/2000/svg" viewBox="0 0 500 500" width="500" height="500">
	<title>Black Google Scholar Icon Vector-svg</title>
	<style>
		.s0 { fill: #ffffff } 
	</style>
	<g id="Layer">
		<path id="Layer" fill-rule="evenodd" class="s0" d="m500 250c0 138.1-111.9 250-250 250-138.1 0-250-111.9-250-250 0-138.1 111.9-250 250-250 138.1 0 250 111.9 250 250zm-409.1-56.8h77c0.3 32.4 24.9 65.1 68.1 65.1 4.1 0 8.7-0.5 13.2-0.9-2 5.1-4.2 9.3-4.2 16.2 0 13.1 6.6 20.9 12.4 28.4-18.5 1.3-53 3.4-78.3 19.2-24.2 14.7-31.6 36-31.6 51 0 30.9 28.6 59.6 88.1 59.6 70.4 0 107.8-39.6 107.8-78.8 0-28.8-16.4-43-34.4-58.5l-14.7-11.7c-4.5-3.6-10.8-8.7-10.8-17.8 0-9.2 6.3-15.1 11.6-20.6 17.2-13.6 34.4-28.9 34.4-59.9 0-11.8-2.7-21.4-6.7-29.4l40.8-35v42.2c-6.8 3.8-11.3 11.1-11.3 19.5v68.2c0 12.5 10.2 22.7 22.7 22.7 12.5 0 22.7-10.2 22.7-22.7v-68.2c0-8.4-4.5-15.7-11.3-19.5v-60c0-0.5-0.3-0.9-0.3-1.4l11.6-10h-193.2zm202.5 11.4c0 7.4-0.9 20.7-10.2 30.3-6.6 6.7-17.6 11.7-27.9 11.7-35.1 0-51.3-46.3-51.3-74.3 0-10.8 2.2-22 9.1-30.7 6.6-8.5 18.1-13.8 28.6-13.8 34.1 0 51.7 46.7 51.7 76.8zm-22 109.6c31.1 22.5 44.6 33.8 44.6 55 0 25.8-20.9 45.2-60.3 45.2-43.8 0-72-21.3-72-51 0-29.6 26.1-39.5 35.2-42.9 17.2-5.9 39.3-6.7 42.9-6.7 4.2 0 6.3 0 9.6 0.4z"/>
	</g>
</svg>