<svg version="1.2" xmlns="http://www.w3.org/2000/svg" viewBox="0 0 498 186" width="498" height="186"><style>.a{fill:#fff}</style><path fill-rule="evenodd" class="a" d="m300.8 0.8h61.3v13.7h-61.3zm-300.8 0h14.8v28.2l27.3-28.2h17.9l-27.4 28.5 28.6 38.8h-17.8l-20.8-28.7-7.8 8.1v20.6h-14.8zm157.6 0h13.7l31.3 41.4v-41.4h14.8v67.3h-12.6l-32.3-42.8v42.8h-14.9zm91.1 13.7h-23.2v-13.7h61.2v13.7h-23.2v53.6h-14.8zm188-13.7h14.8v26.6h31.2v-26.6h14.8v67.3h-14.8v-27h-31.2v27h-14.8zm-156.7 53.6h61.2v13.7h-61.2zm10.4-26.8h61.2v13.7h-61.2zm-223 26.8h61.3v13.7h-61.3zm10.5-26.8h61.2v13.7h-61.2zm10.4-26.8h61.2v13.7h-61.2zm319.8 68.3c-2.5 0.5-5.3 0.8-8.3 0.8q-3.8 0-7.3-0.7c-16-3.6-27.9-17.8-27.9-34.8 0-15 9.3-27.8 22.4-33 4.1-1.5 8.5-2.4 13.4-2.4 10.5 0 20.7 5.5 26.2 11.5l-8.8 10.1c-5.3-4.8-10.7-7.7-17.5-7.7-11.6 0-19.9 9.6-19.9 21.3v0.2c0 11.8 8.1 21.6 19.9 21.6 7.8 0 12.6-3.2 18-8.1l9.2 9.4c-4.9 5.9-11.7 10.1-19.4 11.8zm-314.9 74h-6.6v-12.6h-30.8v-5.5h15.6v-6.5h-18.8v-5.5h44.3v5.5h-18.8v6.5h15.1zm0-33h-6.6v-9.2h-30.3v-5.5h36.9zm260.2-14.7h20.4v5.5h-13.8v25.2h18v-32h5.9v15.2h4v-15.2h6v48.9h-6v-28.2h-4v28.2h-5.9v-11.4h-24.6zm-42.8 17.6h6.7v16.7h18.4v-35.6h6.6v15.2h6.7v5.5h-6.7v28.2h-6.6v-7.8h-35.3v-5.5h10.2zm19.8 13.7h-6.6v-25.8h-21.6v-5.5h28.2zm-140.7-32.6h6.7v48.9h-6.7v-31.9h-13v-5.5h13zm-32.8 1.3h6.7v27.8h22v5.5h-28.7zm-121.7-1.3h6.7v11.5h7.6v5.5h-7.6v17.2h-6.7zm-23.2-4.6h6.7v6.1h11.9v5.5h-4.9c-2.4-2.9-6.2-4.7-10.4-4.7-4.2 0-7.9 1.8-10.3 4.7h-4.9v-5.5h11.9zm-3.4 37.2h6.6v10.3h28v5.6h-34.6zm6.7-5.6c-7.3 0-13.2-5.5-13.2-12.3 0-2.9 1.1-5.6 2.9-7.7h20.7c1.8 2.1 2.9 4.8 2.9 7.7 0 6.8-5.9 12.3-13.3 12.3zm7-12.3c0-3.9-3.1-7-7-7-3.8 0-6.9 3.1-6.9 7 0 3.8 3.1 7 6.9 7 3.9 0 7-3.2 7-7zm391-19.3h6.6v6.1h11.9v5.5h-4.9c-2.4-2.9-6.1-4.7-10.3-4.7-4.2 0-7.9 1.8-10.3 4.7h-4.9v-5.5h11.9zm3.3 31.6c-7.3 0-13.2-5.5-13.2-12.3 0-2.9 1.1-5.6 2.9-7.7h20.6c1.8 2.1 2.9 4.8 2.9 7.7 0 6.8-5.9 12.3-13.2 12.3zm7-12.3c0-3.9-3.1-7-7-7-3.9 0-7 3.1-7 7 0 3.8 3.1 7 7 7 3.9 0 7-3.2 7-7zm-290.6-14.7h5.9v48.9h-5.9v-31.9h-4.7q0.3-1.3 0.3-2.7 0-1.4-0.3-2.8h4.7zm-4.7 17c-1.2 6.4-6.9 11.3-13.8 11.3-7.8 0-14.1-6.3-14.1-14 0-7.8 6.3-14.1 14.1-14.1 6.8 0 12.5 4.8 13.8 11.3h-2v5.5zm14.6-17h6v48.9h-6zm96.1 0h6.6v48.9h-6.6zm-33.9 1.3h28.8v5.5h-10.9l11.8 28.3-5.8 2.2-9.4-22.6-9.6 22.6-5.8-2.2 12.1-28.3h-11.2zm245.1 10.2v5.5h-7.6v11.5h-6.7v-28.5h6.7v11.5zm-7.2 37.5h-6.6v-11.5h-28v-5.5h34.6zm-172.1-33.5h6.6v6.5h19.8v5.5h-13.8c-2.4-2.1-5.6-3.3-9-3.3-3.5 0-6.7 1.2-9.1 3.3h-12.4v-5.5h17.9zm22.7 3.2h-6.7v-11.9h-30.2v-5.5h36.9zm158.2 20.1h8.3v-18.9h6.6v18.9h6.8v-18.9h6.6v18.9h16v5.5h-44.3zm40.6-3.1h-6.6v-28.9h-30.2v-5.5h36.8zm-370.3-21.5c0-4.5-3.4-8.1-7.6-8.1-4.2 0-7.6 3.6-7.6 8.1 0 4.6 3.4 8.2 7.6 8.2 4.2 0 7.6-3.6 7.6-8.2zm152.4 38.1c-7.8 0-14.1-6.3-14.1-14 0-4.3 1.9-8.2 5-10.8h18.1c3.1 2.6 5.1 6.5 5.1 10.8 0 7.7-6.3 14-14.1 14zm7.6-14.1c0-4.5-3.4-8.1-7.6-8.1-4.2 0-7.6 3.6-7.6 8.1 0 4.6 3.4 8.2 7.6 8.2 4.2 0 7.6-3.6 7.6-8.2zm-269.8 35.9l-2.5 2.6v7h-2.7v-20.6h2.7v10.2l9.2-10.2h3.3l-8.2 9.1 8.8 11.5h-3.3zm10.9 1.8q0-2.3 0.8-4 0.9-1.8 2.5-2.8 1.6-1 3.6-1 3.1 0 5.1 2.2 1.9 2.1 1.9 5.7v0.2q0 2.3-0.8 4-0.9 1.8-2.5 2.8-1.6 1-3.7 1-3.1 0-5-2.2-1.9-2.1-1.9-5.7zm2.6 0.3q0 2.6 1.2 4.1 1.2 1.5 3.1 1.5 2 0 3.2-1.5 1.2-1.6 1.2-4.4 0-2.5-1.2-4.1-1.2-1.6-3.2-1.6-1.9 0-3.1 1.6-1.2 1.5-1.2 4.4zm22.5-5.5q-0.6-0.1-1.2-0.1-2.6 0-3.5 2.2v10.9h-2.7v-15.3h2.6v1.8q1.3-2.1 3.7-2.1 0.7 0 1.1 0.2zm9.1 13.3q-3.1 0-5.1-2.1-2-2-2-5.4v-0.5q0-2.3 0.9-4.1 0.9-1.8 2.5-2.8 1.5-1 3.3-1 3 0 4.7 2 1.7 1.9 1.7 5.6v1.1h-10.4q0 2.3 1.3 3.7 1.3 1.4 3.2 1.4 1.4 0 2.4-0.6 0.9-0.6 1.7-1.5l1.6 1.2q-2 3-5.8 3zm-0.4-13.7q-1.5 0-2.6 1.1-1.1 1.2-1.4 3.2h7.7v-0.2q-0.1-2-1-3.1-1-1-2.7-1zm19.4 13.4q-0.2-0.4-0.4-1.6-1.8 1.9-4.4 1.9-2.2 0-3.7-1.3-1.4-1.3-1.4-3.2 0-2.4 1.8-3.8 1.8-1.3 5.1-1.3h2.6v-1.2q0-1.4-0.9-2.2-0.8-0.8-2.4-0.8-1.4 0-2.3 0.7-1 0.7-1 1.7h-2.6q0-1.1 0.8-2.2 0.8-1.1 2.2-1.7 1.4-0.6 3.1-0.6 2.6 0 4.1 1.3 1.5 1.3 1.6 3.7v7q0 2.1 0.5 3.4v0.2zm-4.3-2q1.2 0 2.3-0.6 1.1-0.7 1.6-1.7v-3.1h-2q-4.9 0-4.9 2.8 0 1.2 0.9 1.9 0.8 0.7 2.1 0.7zm19.4-18.6h2.8v20.6h-2.8zm10.3 5.3l0.1 1.9q1.8-2.2 4.6-2.2 4.9 0 4.9 5.5v10.1h-2.6v-10.1q0-1.7-0.8-2.5-0.7-0.8-2.3-0.8-1.3 0-2.2 0.7-1 0.7-1.5 1.8v10.9h-2.6v-15.3zm23 11.2q0-1-0.8-1.6-0.8-0.6-2.8-1-2-0.4-3.1-1-1.2-0.6-1.8-1.5-0.5-0.8-0.5-1.9 0-1.9 1.6-3.2 1.6-1.3 4-1.3 2.7 0 4.3 1.3 1.6 1.4 1.6 3.5h-2.6q0-1.1-0.9-1.9-1-0.7-2.4-0.7-1.4 0-2.2 0.6-0.8 0.6-0.8 1.6 0 1 0.8 1.4 0.7 0.5 2.7 1 1.9 0.4 3.1 1 1.3 0.6 1.9 1.5 0.5 0.8 0.5 2.1 0 2-1.6 3.3-1.6 1.2-4.3 1.2-1.8 0-3.2-0.7-1.4-0.6-2.2-1.8-0.8-1.1-0.8-2.5h2.6q0 1.3 1 2.1 1 0.8 2.6 0.8 1.5 0 2.4-0.7 0.9-0.6 0.9-1.6zm10.1-14.9v3.7h2.9v2h-2.9v9.5q0 0.9 0.4 1.4 0.4 0.5 1.3 0.5 0.5 0 1.3-0.2v2.1q-1.1 0.3-2 0.3-1.8 0-2.7-1.1-0.9-1-0.9-3v-9.5h-2.8v-2h2.8v-3.7zm6.7 3.7h2.6v15.3h-2.6zm-0.2-4.1q0-0.6 0.4-1 0.4-0.5 1.1-0.5 0.8 0 1.2 0.5 0.4 0.4 0.4 1 0 0.7-0.4 1.1-0.4 0.4-1.2 0.4-0.7 0-1.1-0.4-0.4-0.4-0.4-1.1zm11.1 0.4v3.7h2.9v2h-2.9v9.5q0 0.9 0.4 1.4 0.4 0.5 1.3 0.5 0.5 0 1.3-0.2v2.1q-1.1 0.3-2.1 0.3-1.7 0-2.6-1.1-0.9-1-0.9-3v-9.5h-2.8v-2h2.8v-3.7zm15.9 17.5q-1.5 1.8-4.5 1.8-2.4 0-3.7-1.4-1.3-1.5-1.3-4.2v-10h2.6v9.9q0 3.5 2.9 3.5 3 0 4-2.3v-11.1h2.6v15.3h-2.5zm10.6-17.5v3.7h2.9v2h-2.9v9.5q0 0.9 0.4 1.4 0.4 0.5 1.3 0.5 0.5 0 1.3-0.2v2.1q-1.1 0.3-2 0.3-1.8 0-2.7-1.1-0.9-1-0.9-3v-9.5h-2.8v-2h2.8v-3.7zm12.3 19.3q-3.1 0-5.1-2.1-2-2-2-5.4v-0.5q0.1-2.3 0.9-4.1 0.9-1.8 2.5-2.8 1.5-1 3.4-1 2.9 0 4.6 2 1.7 1.9 1.7 5.6v1.1h-10.4q0 2.3 1.3 3.7 1.3 1.4 3.2 1.4 1.4 0 2.4-0.6 0.9-0.6 1.7-1.5l1.6 1.2q-2 3-5.8 3zm-0.3-13.7q-1.6 0-2.7 1.1-1.1 1.2-1.3 3.2h7.6v-0.2q-0.1-2-1-3.1-1-1-2.6-1zm16.8 5.6q0-2.3 0.9-4 0.9-1.8 2.5-2.8 1.6-1 3.6-1 3.1 0 5.1 2.2 1.9 2.1 1.9 5.7v0.2q0 2.3-0.9 4-0.8 1.8-2.4 2.8-1.6 1-3.7 1-3.1 0-5-2.2-2-2.1-2-5.7zm2.7 0.3q0 2.6 1.2 4.1 1.1 1.5 3.1 1.5 2 0 3.2-1.5 1.2-1.6 1.2-4.4 0-2.5-1.2-4.1-1.2-1.6-3.2-1.6-1.9 0-3.1 1.6-1.2 1.5-1.2 4.4zm15.2 7.5v-13.3h-2.4v-2h2.4v-1.6q0-2.5 1.4-3.8 1.3-1.3 3.7-1.3 0.9 0 1.8 0.2l-0.2 2.1q-0.6-0.1-1.4-0.1-1.3 0-1.9 0.7-0.7 0.8-0.7 2.2v1.6h3.2v2h-3.2v13.3zm29.1-9.5h-8.9v7.3h10.4v2.2h-13.1v-20.6h12.9v2.2h-10.2v6.6h8.9zm7.5-5.8v1.9q1.8-2.2 4.6-2.2 4.9 0 4.9 5.5v10.1h-2.6v-10.1q0-1.7-0.7-2.5-0.8-0.8-2.4-0.8-1.2 0-2.2 0.7-1 0.7-1.5 1.8v10.9h-2.6v-15.3zm20.4 15.6q-3.1 0-5.1-2.1-1.9-2-1.9-5.4v-0.5q0-2.3 0.8-4.1 0.9-1.8 2.5-2.8 1.5-1 3.4-1 3 0 4.6 2 1.7 1.9 1.7 5.6v1.1h-10.4q0 2.3 1.3 3.7 1.3 1.4 3.2 1.4 1.4 0 2.4-0.6 0.9-0.6 1.7-1.5l1.6 1.2q-2 3-5.8 3zm-0.3-13.7q-1.6 0-2.7 1.1-1.1 1.2-1.3 3.2h7.6v-0.2q-0.1-2-1-3.1-1-1-2.6-1zm17.2 0.4q-0.6-0.1-1.3-0.1-2.5 0-3.5 2.2v10.9h-2.6v-15.3h2.6v1.8q1.3-2.1 3.7-2.1 0.7 0 1.1 0.2zm2.1 5.2q0-3.6 1.6-5.7 1.7-2.1 4.4-2.1 2.8 0 4.4 2l0.1-1.7h2.4v14.9q0 3-1.7 4.7-1.8 1.7-4.8 1.7-1.6 0-3.2-0.7-1.6-0.7-2.4-1.9l1.3-1.6q1.7 2.1 4.1 2.1 2 0 3-1.1 1.1-1 1.1-3v-1.3q-1.6 1.8-4.3 1.8-2.7 0-4.4-2.2-1.6-2.1-1.6-5.9zm2.6 0.3q0 2.6 1.1 4.1 1 1.5 3 1.5 2.4 0 3.6-2.3v-7q-1.2-2.2-3.6-2.2-1.9 0-3 1.5-1.1 1.5-1.1 4.4zm20.4 3.7l3.6-11.5h2.8l-6.2 17.7q-1.4 3.8-4.5 3.8h-0.5l-1-0.2v-2.2l0.7 0.1q1.3 0 2.1-0.5 0.7-0.6 1.2-2l0.6-1.6-5.5-15.1h2.9zm31.1-14.6h-6.7v18.4h-2.7v-18.4h-6.6v-2.2h16zm5.8 18.7q-3.1 0-5.1-2.1-1.9-2-1.9-5.4v-0.5q0-2.3 0.8-4.1 0.9-1.8 2.5-2.8 1.5-1 3.4-1 3 0 4.6 2 1.7 1.9 1.7 5.6v1.1h-10.4q0 2.3 1.3 3.7 1.3 1.4 3.2 1.4 1.4 0 2.4-0.6 0.9-0.6 1.7-1.5l1.6 1.2q-2 3-5.8 3zm-0.3-13.7q-1.6 0-2.7 1.1-1.1 1.2-1.3 3.2h7.6v-0.2q-0.1-2-1-3.1-1-1-2.6-1zm16.6 11.6q1.4 0 2.4-0.9 1.1-0.8 1.2-2.1h2.5q-0.1 1.3-1 2.5-0.8 1.2-2.2 1.9-1.4 0.7-2.9 0.7-3.2 0-5-2.1-1.9-2.1-1.9-5.7v-0.5q0-2.2 0.8-3.9 0.9-1.8 2.4-2.7 1.5-1 3.6-1 2.6 0 4.3 1.5 1.7 1.6 1.9 4.1h-2.5q-0.1-1.5-1.2-2.5-1-0.9-2.5-0.9-2 0-3.1 1.4-1.1 1.4-1.1 4.1v0.5q0 2.7 1.1 4.1 1.1 1.5 3.2 1.5zm12.1-11.7q1.8-2.1 4.6-2.1 4.8 0 4.9 5.5v10.1h-2.6v-10.1q0-1.7-0.8-2.5-0.7-0.8-2.3-0.8-1.3 0-2.3 0.7-0.9 0.7-1.5 1.8v10.9h-2.6v-21.8h2.6zm17.6-1.8l0.1 1.9q1.7-2.2 4.6-2.2 4.8 0 4.9 5.5v10.1h-2.7v-10.1q0-1.7-0.7-2.5-0.8-0.8-2.3-0.8-1.3 0-2.3 0.7-0.9 0.7-1.5 1.8v10.9h-2.6v-15.3zm13.3 7.5q0-2.3 0.9-4 0.9-1.8 2.5-2.8 1.6-1 3.6-1 3.1 0 5.1 2.2 1.9 2.1 1.9 5.7v0.2q0 2.3-0.9 4-0.8 1.8-2.4 2.8-1.6 1-3.7 1-3.1 0-5-2.2-2-2.1-2-5.7zm2.7 0.3q0 2.6 1.2 4.1 1.1 1.5 3.1 1.5 2 0 3.2-1.5 1.2-1.6 1.2-4.4 0-2.5-1.2-4.1-1.2-1.6-3.2-1.6-1.9 0-3.1 1.6-1.2 1.5-1.2 4.4zm15.3-14.3h2.7v21.8h-2.7zm6.7 14q0-2.3 0.9-4 0.9-1.8 2.4-2.8 1.6-1 3.7-1 3.1 0 5 2.2 2 2.1 2 5.7v0.2q0 2.3-0.9 4-0.9 1.8-2.5 2.8-1.6 1-3.6 1-3.1 0-5.1-2.2-1.9-2.1-1.9-5.7zm2.6 0.3q0 2.6 1.2 4.1 1.2 1.5 3.2 1.5 2 0 3.2-1.5 1.1-1.6 1.1-4.4 0-2.5-1.2-4.1-1.2-1.6-3.1-1.6-2 0-3.2 1.6-1.2 1.5-1.2 4.4zm14.5-0.3q0-3.6 1.7-5.7 1.7-2.1 4.4-2.1 2.8 0 4.4 2l0.1-1.7h2.4v14.9q0 3-1.8 4.7-1.7 1.7-4.7 1.7-1.7 0-3.3-0.7-1.5-0.7-2.4-1.9l1.4-1.6q1.7 2.1 4.1 2.1 1.9 0 3-1.1 1.1-1 1.1-3v-1.3q-1.6 1.8-4.3 1.8-2.7 0-4.4-2.2-1.7-2.1-1.7-5.9zm2.7 0.3q0 2.6 1 4.1 1.1 1.5 3 1.5 2.5 0 3.7-2.3v-7q-1.2-2.2-3.7-2.2-1.9 0-2.9 1.5-1.1 1.5-1.1 4.4zm19.8 3.7l3.6-11.5h2.8l-6.2 17.7q-1.4 3.8-4.5 3.8h-0.5l-1-0.2v-2.2l0.7 0.1q1.3 0 2.1-0.5 0.7-0.6 1.2-2l0.6-1.6-5.5-15.1h2.9z"/></svg>